<svg width="180" height="180" viewBox="0 0 180 180" fill="none" xmlns="http://www.w3.org/2000/svg">
<rect width="180" height="180" rx="12" fill="white"/>
<path d="M105.125 78.1197H101.203L99.7229 75.1598C98.5508 72.8156 96.1945 71.3594 93.5736 71.3594H86.4263C83.8054 71.3594 81.4491 72.8156 80.277 75.1598L78.797 78.1197H74.875C71.0841 78.1197 68 81.2039 68 84.9947V101.767C68 105.558 71.0841 108.642 74.875 108.642H105.125C108.916 108.642 112 105.558 112 101.767V84.9947C112 81.2038 108.916 78.1197 105.125 78.1197ZM108.562 101.767C108.562 103.662 107.02 105.204 105.125 105.204H74.875C72.9796 105.204 71.4375 103.662 71.4375 101.767V84.9947C71.4375 83.0993 72.9796 81.5572 74.875 81.5572H79.8594C80.5104 81.5572 81.1055 81.1894 81.3967 80.6071L83.3518 76.697C83.9378 75.5249 85.1159 74.7968 86.4264 74.7968H93.5737C94.8842 74.7968 96.0623 75.5249 96.6483 76.697L98.6034 80.6071C98.8945 81.1894 99.4896 81.5572 100.141 81.5572H105.125C107.02 81.5572 108.562 83.0993 108.562 84.9947V101.767ZM90 83.1614C85.3246 83.1614 81.5208 86.9652 81.5208 91.6406C81.5208 96.3161 85.3246 100.12 90 100.12C94.6754 100.12 98.4792 96.3161 98.4792 91.6406C98.4792 86.9651 94.6754 83.1614 90 83.1614ZM90 96.6822C87.22 96.6822 84.9583 94.4205 84.9583 91.6405C84.9583 88.8605 87.22 86.5988 90 86.5988C92.78 86.5988 95.0417 88.8605 95.0417 91.6405C95.0417 94.4205 92.78 96.6822 90 96.6822Z" fill="#9244EB"/>
</svg>
