<svg width="191" height="338" viewBox="0 0 191 338" fill="none" xmlns="http://www.w3.org/2000/svg">
<g filter="url(#filter0_d_2561_42212)">
<path d="M65.3345 25.5052C66.1258 24.3149 67.8742 24.3149 68.6655 25.5052L81.3887 44.6427C82.2724 45.972 81.3194 47.75 79.7232 47.75H54.2768C52.6806 47.75 51.7276 45.972 52.6113 44.6427L65.3345 25.5052Z" fill="white"/>
</g>
<g filter="url(#filter1_d_2561_42212)">
<rect x="24" y="42" width="143" height="268" rx="14" fill="white"/>
</g>
<path d="M60.7497 79.5833L58.833 81.5L58.833 73.5C58.833 73 58.4997 72.6667 57.9997 72.6667C57.4997 72.6667 57.1663 73 57.1663 73.5L57.1663 81.5L55.2497 79.5833C54.9163 79.25 54.4163 79.25 54.083 79.5833C53.7497 79.9167 53.7497 80.4167 54.083 80.75L57.4163 84.0833C57.4997 84.1667 57.583 84.25 57.6663 84.25C57.833 84.3333 58.083 84.3333 58.333 84.25C58.4163 84.25 58.4997 84.1667 58.583 84.0833L61.9163 80.75C62.2497 80.4167 62.2497 79.9167 61.9163 79.5833C61.583 79.25 61.083 79.25 60.7497 79.5833ZM50.4997 74.3333C50.9997 74.3333 51.333 74 51.333 73.5L51.333 70.1667C51.333 69.6667 51.6663 69.3333 52.1663 69.3333L63.833 69.3333C64.333 69.3333 64.6663 69.6667 64.6663 70.1667L64.6663 73.5C64.6663 74 64.9997 74.3333 65.4997 74.3333C65.9997 74.3333 66.333 74 66.333 73.5L66.333 70.1667C66.333 68.75 65.2497 67.6667 63.833 67.6667L52.1663 67.6667C50.7497 67.6667 49.6663 68.75 49.6663 70.1667L49.6663 73.5C49.6663 74 49.9997 74.3333 50.4997 74.3333Z" fill="#9244EB"/>
<path d="M79.05 70.088H82.578C84.3 70.088 85.7 70.704 86.498 71.656C87.296 72.608 87.716 73.798 87.716 75.044C87.716 76.472 87.212 77.648 86.218 78.586C85.21 79.524 83.922 80 82.368 80H79.05V70.088ZM80.394 78.74H82.158C83.152 78.74 84.09 78.46 84.916 77.9C85.742 77.34 86.288 76.318 86.288 75.044C86.288 74.022 85.966 73.14 85.308 72.426C84.65 71.712 83.712 71.348 82.48 71.348H80.394V78.74ZM92.535 73.196C93.501 73.196 94.327 73.532 95.027 74.19C95.713 74.848 96.063 75.688 96.063 76.682C96.063 77.648 95.727 78.474 95.041 79.146C94.355 79.832 93.529 80.168 92.535 80.168C91.569 80.168 90.729 79.832 90.043 79.16C89.357 78.488 89.007 77.662 89.007 76.682C89.007 75.716 89.343 74.89 90.029 74.204C90.715 73.532 91.541 73.196 92.535 73.196ZM90.351 76.682C90.351 78.068 91.233 78.992 92.535 78.992C93.837 78.992 94.719 78.068 94.719 76.682C94.719 75.282 93.823 74.372 92.521 74.372C91.233 74.372 90.351 75.324 90.351 76.682ZM96.8435 73.364H98.2575L99.7555 78.32H99.7835L101.365 73.364H102.695L104.375 78.32H104.403L105.831 73.364H107.161L105.019 80H103.745L101.995 75.044H101.967L100.385 80H99.0275L96.8435 73.364ZM111.737 73.196C113.207 73.196 114.145 74.162 114.145 75.674V80H112.885V76.038C112.885 75.016 112.325 74.372 111.373 74.372C110.211 74.372 109.525 75.184 109.525 76.528V80H108.265V73.364H109.525V74.386H109.553C109.903 73.658 110.771 73.196 111.737 73.196ZM116.142 69.416H117.402V80H116.142V69.416ZM122.613 73.196C123.579 73.196 124.405 73.532 125.105 74.19C125.791 74.848 126.141 75.688 126.141 76.682C126.141 77.648 125.805 78.474 125.119 79.146C124.433 79.832 123.607 80.168 122.613 80.168C121.647 80.168 120.807 79.832 120.121 79.16C119.435 78.488 119.085 77.662 119.085 76.682C119.085 75.716 119.421 74.89 120.107 74.204C120.793 73.532 121.619 73.196 122.613 73.196ZM120.429 76.682C120.429 78.068 121.311 78.992 122.613 78.992C123.915 78.992 124.797 78.068 124.797 76.682C124.797 75.282 123.901 74.372 122.599 74.372C121.311 74.372 120.429 75.324 120.429 76.682ZM130.38 73.196C131.304 73.196 132.004 73.406 132.466 73.84C132.928 74.274 133.152 74.778 133.152 75.366V78.922C133.152 79.328 133.166 79.692 133.208 80H132.088C132.06 79.664 132.046 79.328 132.046 78.992H132.018C131.5 79.776 130.716 80.168 129.694 80.168C128.35 80.168 127.398 79.398 127.398 78.18C127.398 76.766 128.56 75.884 131.038 75.884H131.976V75.646C131.976 74.764 131.332 74.204 130.38 74.204C129.652 74.204 129.232 74.386 128.504 74.96L127.748 74.176C128.462 73.518 129.33 73.196 130.38 73.196ZM128.658 78.082C128.658 78.796 129.134 79.16 130.086 79.16C131.248 79.16 131.976 78.446 131.976 77.172V76.808H131.262C129.526 76.808 128.658 77.228 128.658 78.082ZM140.369 69.416H141.629V80H140.369V79.048H140.341C139.851 79.762 138.969 80.168 138.031 80.168C137.051 80.168 136.239 79.846 135.609 79.188C134.979 78.544 134.657 77.704 134.657 76.682C134.657 75.66 134.979 74.82 135.609 74.162C136.239 73.518 137.051 73.196 138.031 73.196C138.969 73.196 139.879 73.63 140.341 74.316H140.369V69.416ZM136.603 75.002C136.197 75.436 136.001 75.996 136.001 76.682C136.001 77.368 136.197 77.928 136.603 78.348C137.009 78.782 137.527 78.992 138.185 78.992C139.487 78.992 140.369 78.068 140.369 76.682C140.369 75.282 139.473 74.372 138.171 74.372C137.527 74.372 137.009 74.582 136.603 75.002Z" fill="#5D5962"/>
<g clip-path="url(#clip0_2561_42212)">
<path d="M51.0205 125.166H59.1455C59.7254 125.165 60.2813 124.934 60.6913 124.524C61.1014 124.114 61.3321 123.558 61.333 122.979V112.354C61.3321 111.774 61.1014 111.218 60.6913 110.808C60.2813 110.398 59.7254 110.167 59.1455 110.166H51.0205C50.4406 110.167 49.8847 110.398 49.4747 110.808C49.0646 111.218 48.8339 111.774 48.833 112.354V122.979C48.8339 123.558 49.0646 124.114 49.4747 124.524C49.8847 124.934 50.4406 125.165 51.0205 125.166ZM50.4997 112.354C50.4997 112.215 50.5545 112.083 50.6522 111.985C50.7499 111.888 50.8824 111.833 51.0205 111.833H59.1455C59.2836 111.833 59.4161 111.888 59.5138 111.985C59.6115 112.083 59.6663 112.215 59.6663 112.354V122.979C59.6663 123.117 59.6115 123.249 59.5138 123.347C59.4161 123.444 59.2836 123.499 59.1455 123.499H51.0205C50.8824 123.499 50.7499 123.444 50.6522 123.347C50.5545 123.249 50.4997 123.117 50.4997 122.979V112.354Z" fill="#9244EB"/>
<path d="M64.9746 106.833H56.8579C56.4269 106.833 56.0057 106.961 55.6468 107.2C55.2879 107.438 55.0074 107.777 54.8404 108.175C54.7542 108.378 54.7524 108.608 54.8354 108.813C54.9184 109.017 55.0793 109.181 55.2829 109.267C55.4864 109.353 55.7159 109.355 55.9208 109.272C56.1257 109.189 56.2892 109.028 56.3754 108.825C56.4148 108.729 56.4817 108.647 56.5675 108.589C56.6534 108.531 56.7544 108.5 56.8579 108.5H64.9746C65.1137 108.5 65.2471 108.555 65.3455 108.654C65.444 108.752 65.4993 108.886 65.4996 109.025V119.641C65.4993 119.781 65.444 119.914 65.3455 120.012C65.2471 120.111 65.1137 120.166 64.9746 120.166H62.9996C62.7785 120.166 62.5666 120.254 62.4103 120.41C62.254 120.567 62.1662 120.779 62.1662 121C62.1662 121.221 62.254 121.433 62.4103 121.589C62.5666 121.745 62.7785 121.833 62.9996 121.833H64.9746C65.5556 121.832 66.1127 121.601 66.5236 121.19C66.9344 120.779 67.1656 120.222 67.1662 119.641V109.025C67.1656 108.444 66.9344 107.887 66.5236 107.476C66.1127 107.065 65.5556 106.834 64.9746 106.833Z" fill="#9244EB"/>
</g>
<path d="M79.05 110.088H82.578C84.3 110.088 85.7 110.704 86.498 111.656C87.296 112.608 87.716 113.798 87.716 115.044C87.716 116.472 87.212 117.648 86.218 118.586C85.21 119.524 83.922 120 82.368 120H79.05V110.088ZM80.394 118.74H82.158C83.152 118.74 84.09 118.46 84.916 117.9C85.742 117.34 86.288 116.318 86.288 115.044C86.288 114.022 85.966 113.14 85.308 112.426C84.65 111.712 83.712 111.348 82.48 111.348H80.394V118.74ZM89.329 113.364H90.589V117.34C90.589 118.362 91.163 118.992 92.101 118.992C93.263 118.992 93.949 118.166 93.949 116.836V113.364H95.209V120H93.949V118.978H93.921C93.571 119.706 92.731 120.168 91.737 120.168C90.267 120.168 89.329 119.188 89.329 117.69V113.364ZM100.72 113.196C101.7 113.196 102.512 113.518 103.142 114.162C103.772 114.806 104.08 115.646 104.08 116.682C104.08 117.704 103.772 118.544 103.142 119.188C102.512 119.846 101.7 120.168 100.706 120.168C99.7403 120.168 98.8303 119.72 98.3963 119.048H98.3683V123.948H97.1083V113.364H98.3683V114.316H98.3963C98.9003 113.602 99.7683 113.196 100.72 113.196ZM98.9703 115.002C98.5643 115.436 98.3683 115.996 98.3683 116.682C98.3683 117.368 98.5643 117.928 98.9703 118.348C99.3763 118.782 99.8943 118.992 100.552 118.992C101.882 118.992 102.736 118.082 102.736 116.682C102.736 115.282 101.84 114.372 100.538 114.372C99.8943 114.372 99.3763 114.582 98.9703 115.002ZM105.765 109.416H107.025V120H105.765V109.416ZM109.114 110.326C109.632 109.738 110.724 110.2 110.682 110.984C110.682 111.488 110.262 111.908 109.758 111.908C109.24 111.908 108.834 111.502 108.834 110.984C108.834 110.732 108.932 110.508 109.114 110.326ZM109.128 113.364H110.388V120H109.128V113.364ZM115.543 113.21C116.593 113.21 117.447 113.56 118.091 114.26L117.139 115.128C116.677 114.638 116.117 114.386 115.487 114.386C114.241 114.386 113.415 115.352 113.415 116.738C113.415 117.382 113.611 117.914 114.017 118.348C114.423 118.782 114.927 118.992 115.557 118.992C116.187 118.992 116.733 118.74 117.167 118.25L118.063 119.146C117.461 119.832 116.621 120.168 115.543 120.168C114.521 120.168 113.681 119.846 113.037 119.202C112.393 118.558 112.071 117.732 112.071 116.71C112.071 115.674 112.393 114.834 113.051 114.176C113.695 113.532 114.521 113.21 115.543 113.21ZM121.807 113.196C122.731 113.196 123.431 113.406 123.893 113.84C124.355 114.274 124.579 114.778 124.579 115.366V118.922C124.579 119.328 124.593 119.692 124.635 120H123.515C123.487 119.664 123.473 119.328 123.473 118.992H123.445C122.927 119.776 122.143 120.168 121.121 120.168C119.777 120.168 118.825 119.398 118.825 118.18C118.825 116.766 119.987 115.884 122.465 115.884H123.403V115.646C123.403 114.764 122.759 114.204 121.807 114.204C121.079 114.204 120.659 114.386 119.931 114.96L119.175 114.176C119.889 113.518 120.757 113.196 121.807 113.196ZM120.085 118.082C120.085 118.796 120.561 119.16 121.513 119.16C122.675 119.16 123.403 118.446 123.403 117.172V116.808H122.689C120.953 116.808 120.085 117.228 120.085 118.082ZM126.897 111.502H128.157V113.364H129.963V114.456H128.157V117.648C128.157 118.586 128.367 118.992 129.109 118.992C129.487 118.992 129.795 118.922 130.005 118.796V119.944C129.753 120.098 129.375 120.168 128.857 120.168C127.695 120.126 127.205 119.776 127.037 119.132C126.897 118.684 126.897 118.502 126.897 117.998V114.456H125.441V113.364H126.897V111.502ZM134.627 113.196C136.601 113.196 137.861 114.512 137.861 116.794V117.144H132.541C132.541 117.704 132.765 118.166 133.213 118.53C133.661 118.894 134.179 119.076 134.781 119.076C135.453 119.076 136.055 118.74 136.601 118.082L137.553 118.81C136.839 119.72 135.859 120.168 134.613 120.168C133.619 120.168 132.793 119.846 132.163 119.202C131.519 118.572 131.197 117.732 131.197 116.682C131.197 115.688 131.519 114.862 132.163 114.19C132.807 113.532 133.633 113.196 134.627 113.196ZM132.541 116.136H136.517C136.475 114.904 135.775 114.204 134.599 114.204C133.983 114.204 133.493 114.414 133.115 114.82C132.737 115.24 132.541 115.674 132.541 116.136Z" fill="#5D5962"/>
<path fill-rule="evenodd" clip-rule="evenodd" d="M53.8337 149.334C52.453 149.334 51.3337 150.453 51.3337 151.834V160.167C51.3337 161.548 52.453 162.667 53.8337 162.667H62.167C63.5477 162.667 64.667 161.548 64.667 160.167V155.167C64.667 154.707 65.0401 154.334 65.5003 154.334C65.9606 154.334 66.3337 154.707 66.3337 155.167V160.167C66.3337 162.468 64.4682 164.334 62.167 164.334H53.8337C51.5325 164.334 49.667 162.468 49.667 160.167V151.834C49.667 149.532 51.5325 147.667 53.8337 147.667H58.8337C59.2939 147.667 59.667 148.04 59.667 148.5C59.667 148.961 59.2939 149.334 58.8337 149.334H53.8337Z" fill="#9244EB"/>
<path fill-rule="evenodd" clip-rule="evenodd" d="M63.9981 149.334C63.8208 149.334 63.6506 149.404 63.5252 149.53L56.9609 156.094L56.6457 157.355L57.9069 157.04L64.4711 150.476C64.5965 150.35 64.667 150.18 64.667 150.003C64.667 149.825 64.5965 149.655 64.4711 149.53C64.3457 149.404 64.1755 149.334 63.9981 149.334ZM62.3467 148.351C62.7847 147.913 63.3787 147.667 63.9981 147.667C64.6176 147.667 65.2116 147.913 65.6496 148.351C66.0876 148.789 66.3337 149.383 66.3337 150.003C66.3337 150.622 66.0876 151.216 65.6496 151.654L58.9222 158.381C58.8154 158.488 58.6816 158.564 58.5351 158.601L55.7025 159.309C55.4185 159.38 55.1181 159.297 54.9111 159.09C54.7041 158.883 54.6209 158.582 54.6919 158.298L55.4 155.466C55.4367 155.319 55.5124 155.185 55.6192 155.078L62.3467 148.351Z" fill="#9244EB"/>
<path fill-rule="evenodd" clip-rule="evenodd" d="M60.7441 150.411C61.0695 150.086 61.5971 150.086 61.9226 150.411L63.5892 152.078C63.9146 152.403 63.9146 152.931 63.5892 153.256C63.2638 153.582 62.7361 153.582 62.4107 153.256L60.7441 151.59C60.4186 151.264 60.4186 150.737 60.7441 150.411Z" fill="#9244EB"/>
<path d="M79.274 150.088H82.83C84.664 150.088 85.938 151.012 85.938 152.86C85.938 153.462 85.728 154.036 85.308 154.554C84.888 155.072 84.286 155.38 83.516 155.478H83.502L86.316 160H84.636L82.116 155.632H80.618V160H79.274V150.088ZM80.618 154.456H82.438C83.824 154.456 84.51 153.924 84.51 152.86C84.51 151.796 83.824 151.264 82.438 151.264H80.618V154.456ZM90.5486 153.196C92.5226 153.196 93.7826 154.512 93.7826 156.794V157.144H88.4626C88.4626 157.704 88.6866 158.166 89.1346 158.53C89.5826 158.894 90.1006 159.076 90.7026 159.076C91.3746 159.076 91.9766 158.74 92.5226 158.082L93.4746 158.81C92.7606 159.72 91.7806 160.168 90.5346 160.168C89.5406 160.168 88.7146 159.846 88.0846 159.202C87.4406 158.572 87.1186 157.732 87.1186 156.682C87.1186 155.688 87.4406 154.862 88.0846 154.19C88.7286 153.532 89.5546 153.196 90.5486 153.196ZM88.4626 156.136H92.4386C92.3966 154.904 91.6966 154.204 90.5206 154.204C89.9046 154.204 89.4146 154.414 89.0366 154.82C88.6586 155.24 88.4626 155.674 88.4626 156.136ZM98.7619 153.196C100.232 153.196 101.17 154.162 101.17 155.674V160H99.9099V156.038C99.9099 155.016 99.3499 154.372 98.3979 154.372C97.2359 154.372 96.5499 155.184 96.5499 156.528V160H95.2899V153.364H96.5499V154.386H96.5779C96.9279 153.658 97.7959 153.196 98.7619 153.196ZM105.729 153.196C106.653 153.196 107.353 153.406 107.815 153.84C108.277 154.274 108.501 154.778 108.501 155.366V158.922C108.501 159.328 108.515 159.692 108.557 160H107.437C107.409 159.664 107.395 159.328 107.395 158.992H107.367C106.849 159.776 106.065 160.168 105.043 160.168C103.699 160.168 102.747 159.398 102.747 158.18C102.747 156.766 103.909 155.884 106.387 155.884H107.325V155.646C107.325 154.764 106.681 154.204 105.729 154.204C105.001 154.204 104.581 154.386 103.853 154.96L103.097 154.176C103.811 153.518 104.679 153.196 105.729 153.196ZM104.007 158.082C104.007 158.796 104.483 159.16 105.435 159.16C106.597 159.16 107.325 158.446 107.325 157.172V156.808H106.611C104.875 156.808 104.007 157.228 104.007 158.082ZM113.661 153.196C114.613 153.196 115.299 153.602 115.733 154.428C116.139 153.658 116.951 153.196 117.833 153.196C119.513 153.196 120.353 154.162 120.353 156.08V160H119.093V156.234C119.093 154.946 118.631 154.372 117.665 154.372C116.545 154.372 115.971 155.086 115.971 156.318V160H114.711V156.43C114.711 154.918 114.277 154.372 113.311 154.372C112.289 154.372 111.589 155.226 111.589 156.5V160H110.329V153.364H111.505V154.4H111.533C111.813 153.742 112.709 153.196 113.661 153.196ZM125.289 153.196C127.263 153.196 128.523 154.512 128.523 156.794V157.144H123.203C123.203 157.704 123.427 158.166 123.875 158.53C124.323 158.894 124.841 159.076 125.443 159.076C126.115 159.076 126.717 158.74 127.263 158.082L128.215 158.81C127.501 159.72 126.521 160.168 125.275 160.168C124.281 160.168 123.455 159.846 122.825 159.202C122.181 158.572 121.859 157.732 121.859 156.682C121.859 155.688 122.181 154.862 122.825 154.19C123.469 153.532 124.295 153.196 125.289 153.196ZM123.203 156.136H127.179C127.137 154.904 126.437 154.204 125.261 154.204C124.645 154.204 124.155 154.414 123.777 154.82C123.399 155.24 123.203 155.674 123.203 156.136Z" fill="#5D5962"/>
<path fill-rule="evenodd" clip-rule="evenodd" d="M52.6875 190.688C51.9971 190.688 51.4375 191.247 51.4375 191.938C51.4375 192.628 51.9971 193.188 52.6875 193.188C53.3779 193.188 53.9375 192.628 53.9375 191.938C53.9375 191.247 53.3779 190.688 52.6875 190.688ZM49.5625 191.938C49.5625 190.212 50.9616 188.812 52.6875 188.812C54.4134 188.812 55.8125 190.212 55.8125 191.938C55.8125 193.663 54.4134 195.062 52.6875 195.062C50.9616 195.062 49.5625 193.663 49.5625 191.938Z" fill="#9244EB"/>
<path fill-rule="evenodd" clip-rule="evenodd" d="M52.6875 198.812C51.9971 198.812 51.4375 199.372 51.4375 200.062C51.4375 200.753 51.9971 201.312 52.6875 201.312C53.3779 201.312 53.9375 200.753 53.9375 200.062C53.9375 199.372 53.3779 198.812 52.6875 198.812ZM49.5625 200.062C49.5625 198.337 50.9616 196.938 52.6875 196.938C54.4134 196.938 55.8125 198.337 55.8125 200.062C55.8125 201.788 54.4134 203.188 52.6875 203.188C50.9616 203.188 49.5625 201.788 49.5625 200.062Z" fill="#9244EB"/>
<path fill-rule="evenodd" clip-rule="evenodd" d="M59.3988 195.471C59.6912 195.898 59.5818 196.481 59.1545 196.774L55.0217 199.602C54.5944 199.894 54.011 199.785 53.7186 199.358C53.4262 198.93 53.5355 198.347 53.9628 198.055L58.0957 195.226C58.523 194.934 59.1064 195.043 59.3988 195.471Z" fill="#9244EB"/>
<path fill-rule="evenodd" clip-rule="evenodd" d="M53.7186 192.643C54.011 192.215 54.5945 192.106 55.0217 192.398L66.6545 200.359C67.0818 200.652 67.1912 201.235 66.8988 201.662C66.6063 202.09 66.0229 202.199 65.5957 201.907L53.9628 193.946C53.5355 193.653 53.4262 193.07 53.7186 192.643Z" fill="#9244EB"/>
<path fill-rule="evenodd" clip-rule="evenodd" d="M66.8986 190.338C67.1912 190.765 67.082 191.348 66.6548 191.641L61.9204 194.883C61.4932 195.176 60.9098 195.066 60.6172 194.639C60.3247 194.212 60.4338 193.629 60.861 193.336L65.5954 190.094C66.0226 189.801 66.606 189.91 66.8986 190.338Z" fill="#9244EB"/>
<path d="M82.116 189.836C83.418 189.836 84.37 190.214 84.972 190.97L83.88 191.964C83.502 191.39 82.914 191.096 82.102 191.096C81.416 191.096 80.926 191.25 80.632 191.572C80.338 191.894 80.184 192.244 80.184 192.622C80.184 193.364 80.674 193.882 81.668 194.19L82.914 194.596C84.356 195.058 85.07 195.828 85.07 197.186C85.07 198.096 84.748 198.838 84.104 199.398C83.46 199.972 82.634 200.252 81.626 200.252C80.198 200.252 79.148 199.79 78.462 198.88L79.568 197.928C80.002 198.6 80.786 198.992 81.668 198.992C82.186 198.992 82.648 198.838 83.054 198.53C83.446 198.222 83.642 197.83 83.642 197.34C83.642 196.626 83.208 196.22 82.032 195.842L81.15 195.548C79.624 195.058 78.756 194.26 78.756 192.622C78.756 191.894 79.05 191.25 79.652 190.676C80.254 190.116 81.066 189.836 82.116 189.836ZM90.3433 193.196C91.3233 193.196 92.1353 193.518 92.7653 194.162C93.3953 194.806 93.7033 195.646 93.7033 196.682C93.7033 197.704 93.3953 198.544 92.7653 199.188C92.1353 199.846 91.3233 200.168 90.3293 200.168C89.3633 200.168 88.4533 199.72 88.0193 199.048H87.9913V203.948H86.7313V193.364H87.9913V194.316H88.0193C88.5233 193.602 89.3913 193.196 90.3433 193.196ZM88.5933 195.002C88.1873 195.436 87.9913 195.996 87.9913 196.682C87.9913 197.368 88.1873 197.928 88.5933 198.348C88.9993 198.782 89.5173 198.992 90.1753 198.992C91.5053 198.992 92.3593 198.082 92.3593 196.682C92.3593 195.282 91.4633 194.372 90.1613 194.372C89.5173 194.372 88.9993 194.582 88.5933 195.002ZM95.3879 189.416H96.6479V200H95.3879V189.416ZM98.7372 190.326C99.2552 189.738 100.347 190.2 100.305 190.984C100.305 191.488 99.8852 191.908 99.3812 191.908C98.8632 191.908 98.4572 191.502 98.4572 190.984C98.4572 190.732 98.5552 190.508 98.7372 190.326ZM98.7512 193.364H100.011V200H98.7512V193.364ZM102.506 191.502H103.766V193.364H105.572V194.456H103.766V197.648C103.766 198.586 103.976 198.992 104.718 198.992C105.096 198.992 105.404 198.922 105.614 198.796V199.944C105.362 200.098 104.984 200.168 104.466 200.168C103.304 200.126 102.814 199.776 102.646 199.132C102.506 198.684 102.506 198.502 102.506 197.998V194.456H101.05V193.364H102.506V191.502Z" fill="#5D5962"/>
<path fill-rule="evenodd" clip-rule="evenodd" d="M59.5623 228.911C60.3226 229.424 60.8087 230.346 60.8087 231.406V240.594C60.8087 241.654 60.3226 242.576 59.5623 243.089C58.7819 243.616 57.7424 243.677 56.8637 243.033L52.3514 239.729C52.2438 239.65 52.1369 239.62 52.0416 239.62C50.5935 239.62 49.667 238.268 49.667 236.934V235.065C49.667 233.732 50.5935 232.38 52.0416 232.38C52.1369 232.38 52.2438 232.35 52.3514 232.271L56.8637 228.967C57.7424 228.323 58.7819 228.384 59.5623 228.911ZM58.6301 230.292C58.3878 230.129 58.1177 230.114 57.8484 230.311L53.3361 233.616C52.9605 233.891 52.5123 234.047 52.0416 234.047C51.7873 234.047 51.3337 234.353 51.3337 235.065V236.934C51.3337 237.647 51.7873 237.953 52.0416 237.953C52.5123 237.953 52.9605 238.109 53.3361 238.384L57.8484 241.689C58.1177 241.886 58.3878 241.871 58.6301 241.707C58.8925 241.53 59.142 241.148 59.142 240.594V231.406C59.142 230.851 58.8925 230.47 58.6301 230.292ZM62.5309 233.896C62.8847 233.602 63.4101 233.65 63.7045 234.003L64.2822 234.697L64.8598 234.003C65.1542 233.65 65.6797 233.602 66.0334 233.896C66.3872 234.19 66.4352 234.716 66.1408 235.07L65.3664 236L66.1408 236.93C66.4352 237.284 66.3872 237.81 66.0334 238.104C65.6797 238.398 65.1542 238.35 64.8598 237.997L64.2822 237.303L63.7045 237.997C63.4101 238.35 62.8847 238.398 62.5309 238.104C62.1772 237.81 62.1291 237.284 62.4235 236.93L63.1979 236L62.4235 235.07C62.1291 234.716 62.1772 234.19 62.5309 233.896Z" fill="#9244EB"/>
<path d="M79.176 230.088H81.178L84.328 237.592H84.384L87.506 230.088H89.508V240H88.164V231.852H88.136L84.79 240H83.894L80.548 231.852H80.52V240H79.176V230.088ZM91.6395 233.364H92.8995V237.34C92.8995 238.362 93.4735 238.992 94.4115 238.992C95.5735 238.992 96.2595 238.166 96.2595 236.836V233.364H97.5195V240H96.2595V238.978H96.2315C95.8815 239.706 95.0415 240.168 94.0475 240.168C92.5775 240.168 91.6395 239.188 91.6395 237.69V233.364ZM99.9088 231.502H101.169V233.364H102.975V234.456H101.169V237.648C101.169 238.586 101.379 238.992 102.121 238.992C102.499 238.992 102.807 238.922 103.017 238.796V239.944C102.765 240.098 102.387 240.168 101.869 240.168C100.707 240.126 100.217 239.776 100.049 239.132C99.9088 238.684 99.9088 238.502 99.9088 237.998V234.456H98.4528V233.364H99.9088V231.502ZM107.638 233.196C109.612 233.196 110.872 234.512 110.872 236.794V237.144H105.552C105.552 237.704 105.776 238.166 106.224 238.53C106.672 238.894 107.19 239.076 107.792 239.076C108.464 239.076 109.066 238.74 109.612 238.082L110.564 238.81C109.85 239.72 108.87 240.168 107.624 240.168C106.63 240.168 105.804 239.846 105.174 239.202C104.53 238.572 104.208 237.732 104.208 236.682C104.208 235.688 104.53 234.862 105.174 234.19C105.818 233.532 106.644 233.196 107.638 233.196ZM105.552 236.136H109.528C109.486 234.904 108.786 234.204 107.61 234.204C106.994 234.204 106.504 234.414 106.126 234.82C105.748 235.24 105.552 235.674 105.552 236.136ZM121.148 229.836C122.562 229.836 123.85 230.382 124.62 231.376L123.5 232.23C122.898 231.474 122.1 231.096 121.106 231.096C120.014 231.096 119.132 231.474 118.446 232.244C117.76 233.014 117.41 233.98 117.41 235.128C117.41 236.22 117.746 237.13 118.432 237.872C119.118 238.614 120 238.992 121.106 238.992C122.198 238.992 123.066 238.544 123.696 237.662L124.83 238.516C124.046 239.58 122.646 240.252 121.078 240.252C119.552 240.252 118.166 239.594 117.326 238.6C116.486 237.606 115.982 236.346 115.982 235.114C115.982 233.588 116.458 232.328 117.41 231.334C118.362 230.34 119.608 229.836 121.148 229.836ZM126.232 229.416H127.492V240H126.232V229.416ZM129.581 230.326C130.099 229.738 131.191 230.2 131.149 230.984C131.149 231.488 130.729 231.908 130.225 231.908C129.707 231.908 129.301 231.502 129.301 230.984C129.301 230.732 129.399 230.508 129.581 230.326ZM129.595 233.364H130.855V240H129.595V233.364ZM136.472 233.196C137.452 233.196 138.264 233.518 138.894 234.162C139.524 234.806 139.832 235.646 139.832 236.682C139.832 237.704 139.524 238.544 138.894 239.188C138.264 239.846 137.452 240.168 136.458 240.168C135.492 240.168 134.582 239.72 134.148 239.048H134.12V243.948H132.86V233.364H134.12V234.316H134.148C134.652 233.602 135.52 233.196 136.472 233.196ZM134.722 235.002C134.316 235.436 134.12 235.996 134.12 236.682C134.12 237.368 134.316 237.928 134.722 238.348C135.128 238.782 135.646 238.992 136.304 238.992C137.634 238.992 138.488 238.082 138.488 236.682C138.488 235.282 137.592 234.372 136.29 234.372C135.646 234.372 135.128 234.582 134.722 235.002Z" fill="#5D5962"/>
<path d="M63.833 271.833C63.612 271.833 63.4 271.921 63.2438 272.077C63.0875 272.233 62.9997 272.445 62.9997 272.666V281.992C62.9758 282.414 62.7863 282.808 62.4726 283.091C62.1589 283.373 61.7463 283.52 61.3247 283.5H54.6747C54.2531 283.52 53.8405 283.373 53.5268 283.091C53.213 282.808 53.0236 282.414 52.9997 281.992V272.666C52.9997 272.445 52.9119 272.233 52.7556 272.077C52.5993 271.921 52.3874 271.833 52.1663 271.833C51.9453 271.833 51.7334 271.921 51.5771 272.077C51.4208 272.233 51.333 272.445 51.333 272.666V281.992C51.3568 282.856 51.7218 283.675 52.3482 284.27C52.9745 284.864 53.8111 285.187 54.6747 285.166H61.3247C62.1883 285.187 63.0249 284.864 63.6512 284.27C64.2775 283.675 64.6426 282.856 64.6663 281.992V272.666C64.6663 272.445 64.5785 272.233 64.4223 272.077C64.266 271.921 64.054 271.833 63.833 271.833Z" fill="#9244EB"/>
<path d="M64.6667 269.333H61.3333V267.666C61.3333 267.445 61.2455 267.233 61.0893 267.077C60.933 266.921 60.721 266.833 60.5 266.833H55.5C55.279 266.833 55.067 266.921 54.9107 267.077C54.7545 267.233 54.6667 267.445 54.6667 267.666V269.333H51.3333C51.1123 269.333 50.9004 269.421 50.7441 269.577C50.5878 269.733 50.5 269.945 50.5 270.166C50.5 270.387 50.5878 270.599 50.7441 270.756C50.9004 270.912 51.1123 271 51.3333 271H64.6667C64.8877 271 65.0996 270.912 65.2559 270.756C65.4122 270.599 65.5 270.387 65.5 270.166C65.5 269.945 65.4122 269.733 65.2559 269.577C65.0996 269.421 64.8877 269.333 64.6667 269.333ZM56.3333 269.333V268.5H59.6667V269.333H56.3333Z" fill="#9244EB"/>
<path d="M57.1667 280.167V274.333C57.1667 274.112 57.0789 273.9 56.9226 273.744C56.7663 273.588 56.5543 273.5 56.3333 273.5C56.1123 273.5 55.9004 273.588 55.7441 273.744C55.5878 273.9 55.5 274.112 55.5 274.333V280.167C55.5 280.388 55.5878 280.6 55.7441 280.756C55.9004 280.912 56.1123 281 56.3333 281C56.5543 281 56.7663 280.912 56.9226 280.756C57.0789 280.6 57.1667 280.388 57.1667 280.167Z" fill="#9244EB"/>
<path d="M60.4997 280.167V274.333C60.4997 274.112 60.4119 273.9 60.2556 273.744C60.0993 273.588 59.8874 273.5 59.6663 273.5C59.4453 273.5 59.2334 273.588 59.0771 273.744C58.9208 273.9 58.833 274.112 58.833 274.333V280.167C58.833 280.388 58.9208 280.6 59.0771 280.756C59.2334 280.912 59.4453 281 59.6663 281C59.8874 281 60.0993 280.912 60.2556 280.756C60.4119 280.6 60.4997 280.388 60.4997 280.167Z" fill="#9244EB"/>
<path d="M79.05 270.088H82.578C84.3 270.088 85.7 270.704 86.498 271.656C87.296 272.608 87.716 273.798 87.716 275.044C87.716 276.472 87.212 277.648 86.218 278.586C85.21 279.524 83.922 280 82.368 280H79.05V270.088ZM80.394 278.74H82.158C83.152 278.74 84.09 278.46 84.916 277.9C85.742 277.34 86.288 276.318 86.288 275.044C86.288 274.022 85.966 273.14 85.308 272.426C84.65 271.712 83.712 271.348 82.48 271.348H80.394V278.74ZM92.367 273.196C94.341 273.196 95.601 274.512 95.601 276.794V277.144H90.281C90.281 277.704 90.505 278.166 90.953 278.53C91.401 278.894 91.919 279.076 92.521 279.076C93.193 279.076 93.795 278.74 94.341 278.082L95.293 278.81C94.579 279.72 93.599 280.168 92.353 280.168C91.359 280.168 90.533 279.846 89.903 279.202C89.259 278.572 88.937 277.732 88.937 276.682C88.937 275.688 89.259 274.862 89.903 274.19C90.547 273.532 91.373 273.196 92.367 273.196ZM90.281 276.136H94.257C94.215 274.904 93.515 274.204 92.339 274.204C91.723 274.204 91.233 274.414 90.855 274.82C90.477 275.24 90.281 275.674 90.281 276.136ZM97.2063 269.416H98.4663V280H97.2063V269.416ZM103.51 273.196C105.484 273.196 106.744 274.512 106.744 276.794V277.144H101.424C101.424 277.704 101.648 278.166 102.096 278.53C102.544 278.894 103.062 279.076 103.664 279.076C104.336 279.076 104.938 278.74 105.484 278.082L106.436 278.81C105.722 279.72 104.742 280.168 103.496 280.168C102.502 280.168 101.676 279.846 101.046 279.202C100.402 278.572 100.08 277.732 100.08 276.682C100.08 275.688 100.402 274.862 101.046 274.19C101.69 273.532 102.516 273.196 103.51 273.196ZM101.424 276.136H105.4C105.358 274.904 104.658 274.204 103.482 274.204C102.866 274.204 102.376 274.414 101.998 274.82C101.62 275.24 101.424 275.674 101.424 276.136ZM108.741 271.502H110.001V273.364H111.807V274.456H110.001V277.648C110.001 278.586 110.211 278.992 110.953 278.992C111.331 278.992 111.639 278.922 111.849 278.796V279.944C111.597 280.098 111.219 280.168 110.701 280.168C109.539 280.126 109.049 279.776 108.881 279.132C108.741 278.684 108.741 278.502 108.741 277.998V274.456H107.285V273.364H108.741V271.502ZM116.47 273.196C118.444 273.196 119.704 274.512 119.704 276.794V277.144H114.384C114.384 277.704 114.608 278.166 115.056 278.53C115.504 278.894 116.022 279.076 116.624 279.076C117.296 279.076 117.898 278.74 118.444 278.082L119.396 278.81C118.682 279.72 117.702 280.168 116.456 280.168C115.462 280.168 114.636 279.846 114.006 279.202C113.362 278.572 113.04 277.732 113.04 276.682C113.04 275.688 113.362 274.862 114.006 274.19C114.65 273.532 115.476 273.196 116.47 273.196ZM114.384 276.136H118.36C118.318 274.904 117.618 274.204 116.442 274.204C115.826 274.204 115.336 274.414 114.958 274.82C114.58 275.24 114.384 275.674 114.384 276.136Z" fill="#5D5962"/>
<defs>
<filter id="filter0_d_2561_42212" x="32.2734" y="0.612305" width="77.4531" height="71.1377" filterUnits="userSpaceOnUse" color-interpolation-filters="sRGB">
<feFlood flood-opacity="0" result="BackgroundImageFix"/>
<feColorMatrix in="SourceAlpha" type="matrix" values="0 0 0 0 0 0 0 0 0 0 0 0 0 0 0 0 0 0 127 0" result="hardAlpha"/>
<feOffset dx="4"/>
<feGaussianBlur stdDeviation="12"/>
<feComposite in2="hardAlpha" operator="out"/>
<feColorMatrix type="matrix" values="0 0 0 0 0.912041 0 0 0 0 0.865972 0 0 0 0 0.966667 0 0 0 1 0"/>
<feBlend mode="normal" in2="BackgroundImageFix" result="effect1_dropShadow_2561_42212"/>
<feBlend mode="normal" in="SourceGraphic" in2="effect1_dropShadow_2561_42212" result="shape"/>
</filter>
<filter id="filter1_d_2561_42212" x="0" y="22" width="191" height="316" filterUnits="userSpaceOnUse" color-interpolation-filters="sRGB">
<feFlood flood-opacity="0" result="BackgroundImageFix"/>
<feColorMatrix in="SourceAlpha" type="matrix" values="0 0 0 0 0 0 0 0 0 0 0 0 0 0 0 0 0 0 127 0" result="hardAlpha"/>
<feOffset dy="4"/>
<feGaussianBlur stdDeviation="12"/>
<feComposite in2="hardAlpha" operator="out"/>
<feColorMatrix type="matrix" values="0 0 0 0 0.912041 0 0 0 0 0.865972 0 0 0 0 0.966667 0 0 0 1 0"/>
<feBlend mode="normal" in2="BackgroundImageFix" result="effect1_dropShadow_2561_42212"/>
<feBlend mode="normal" in="SourceGraphic" in2="effect1_dropShadow_2561_42212" result="shape"/>
</filter>
<clipPath id="clip0_2561_42212">
<rect width="20" height="20" fill="white" transform="translate(48 106)"/>
</clipPath>
</defs>
</svg>
