<svg width="1236" height="50" viewBox="0 0 1236 50" fill="none" xmlns="http://www.w3.org/2000/svg">
<path d="M0 0H1236V50H0V0Z" fill="url(#paint0_linear_66_46178)"/>
<circle cx="39" cy="25" r="16" fill="white"/>
<g clip-path="url(#clip0_66_46178)">
<path d="M36.2424 20.4148C35.3769 19.9183 34.6752 20.325 34.6752 21.3225V28.6831C34.6752 29.6815 35.3769 30.0877 36.2424 29.5917L42.6759 25.9021C43.5417 25.4055 43.5417 24.6008 42.6759 24.1043L36.2424 20.4148Z" fill="#1B0730"/>
</g>
<g clip-path="url(#clip1_66_46178)">
<path d="M688.962 23.1648C688.607 22.8096 688.031 22.8097 687.676 23.1648L685.082 25.758C684.954 25.7276 684.82 25.711 684.683 25.711C683.728 25.711 682.952 26.4883 682.952 27.4437C682.952 28.3991 683.728 29.1764 684.683 29.1764C685.638 29.1764 686.415 28.3991 686.415 27.4437C686.415 27.3061 686.399 27.1725 686.368 27.0441L688.962 24.4508C689.317 24.0958 689.317 23.5199 688.962 23.1648Z" fill="white"/>
<circle cx="684.687" cy="27.4609" r="1.21094" fill="#9244EB"/>
<path d="M692.073 19.6905C688.174 15.7907 681.827 15.7905 677.925 19.6907C674.557 23.0601 674.035 28.3749 676.684 32.3279C676.963 32.7452 677.528 32.8567 677.946 32.5772C678.363 32.2977 678.474 31.7328 678.195 31.3155C677.451 30.2047 677.012 28.9625 676.87 27.6984H677.725C678.227 27.6984 678.634 27.2912 678.634 26.789C678.634 26.2868 678.227 25.8796 677.725 25.8796H676.867C677.032 24.3688 677.613 22.9023 678.594 21.6689L679.212 22.2877C679.39 22.4653 679.623 22.5541 679.856 22.5541C680.088 22.5541 680.321 22.4653 680.499 22.2877C680.854 21.9326 680.854 21.3567 680.499 21.0016L679.877 20.3801C681.129 19.3744 682.61 18.7911 684.129 18.6301V19.4889C684.129 19.9912 684.536 20.3983 685.038 20.3983C685.54 20.3983 685.947 19.9912 685.947 19.4889V18.6383C687.439 18.8107 688.892 19.3915 690.122 20.3805L689.501 21.0016C689.146 21.3568 689.146 21.9326 689.501 22.2878C689.679 22.4653 689.911 22.5541 690.144 22.5541C690.377 22.5541 690.61 22.4653 690.787 22.2877L691.406 21.6695C692.386 22.9028 692.968 24.3691 693.133 25.8796H692.275C691.773 25.8796 691.366 26.2868 691.366 26.789C691.366 27.2913 691.773 27.6984 692.275 27.6984H693.13C692.987 28.9625 692.549 30.2047 691.805 31.3154C691.525 31.7326 691.636 32.2975 692.054 32.5771C692.209 32.6813 692.385 32.7312 692.559 32.7312C692.852 32.7312 693.14 32.5898 693.315 32.3281C695.965 28.3747 695.443 23.0598 692.073 19.6905Z" fill="white"/>
<path d="M689.098 31.4141H680.901C680.399 31.4141 679.992 31.8212 679.992 32.3235C679.992 32.8257 680.399 33.2329 680.901 33.2329H689.098C689.601 33.2329 690.008 32.8257 690.008 32.3235C690.008 31.8212 689.601 31.4141 689.098 31.4141Z" fill="white"/>
</g>
<path d="M614.116 18.836C615.418 18.836 616.37 19.214 616.972 19.97L615.88 20.964C615.502 20.39 614.914 20.096 614.102 20.096C613.416 20.096 612.926 20.25 612.632 20.572C612.338 20.894 612.184 21.244 612.184 21.622C612.184 22.364 612.674 22.882 613.668 23.19L614.914 23.596C616.356 24.058 617.07 24.828 617.07 26.186C617.07 27.096 616.748 27.838 616.104 28.398C615.46 28.972 614.634 29.252 613.626 29.252C612.198 29.252 611.148 28.79 610.462 27.88L611.568 26.928C612.002 27.6 612.786 27.992 613.668 27.992C614.186 27.992 614.648 27.838 615.054 27.53C615.446 27.222 615.642 26.83 615.642 26.34C615.642 25.626 615.208 25.22 614.032 24.842L613.15 24.548C611.624 24.058 610.756 23.26 610.756 21.622C610.756 20.894 611.05 20.25 611.652 19.676C612.254 19.116 613.066 18.836 614.116 18.836ZM619.753 19.088H623.309C625.227 19.088 626.417 20.11 626.417 21.86C626.417 23.61 625.213 24.632 623.309 24.632H621.097V29H619.753V19.088ZM621.097 23.456H622.917C624.303 23.456 624.989 22.924 624.989 21.86C624.989 20.796 624.303 20.264 622.917 20.264H621.097V23.456ZM628.752 19.088H635.15V20.348H630.096V23.302H634.8V24.562H630.096V27.74H635.402V29H628.752V19.088ZM638.011 19.088H644.409V20.348H639.355V23.302H644.059V24.562H639.355V27.74H644.661V29H638.011V19.088ZM647.045 19.088H650.573C652.295 19.088 653.695 19.704 654.493 20.656C655.291 21.608 655.711 22.798 655.711 24.044C655.711 25.472 655.207 26.648 654.213 27.586C653.205 28.524 651.917 29 650.363 29H647.045V19.088ZM648.389 27.74H650.153C651.147 27.74 652.085 27.46 652.911 26.9C653.737 26.34 654.283 25.318 654.283 24.044C654.283 23.022 653.961 22.14 653.303 21.426C652.645 20.712 651.707 20.348 650.475 20.348H648.389V27.74Z" fill="white"/>
<rect opacity="0.24" x="704" y="23" width="112" height="3" rx="1.5" fill="#E2F952"/>
<circle cx="733" cy="25" r="7" fill="#E2F952"/>
<rect x="828" y="12" width="42" height="26" rx="6" fill="#E2F952"/>
<path d="M840.372 20.504H841.392V29H840.24V21.824L838.68 23.264L838.008 22.46L840.372 20.504Z" fill="#1B0730"/>
<path d="M854.42 22.364H856.044L857.654 24.716L859.236 22.364H860.762L858.494 25.458L861.182 29H859.558L857.598 26.214L855.638 29H854.084L856.772 25.458L854.42 22.364Z" fill="#5D5962"/>
<path d="M925.586 19.088H927.14L930.052 27.152H930.08L933.104 19.088H934.574L930.668 29H929.408L925.586 19.088ZM941.012 18.836C942.468 18.836 943.7 19.326 944.694 20.292C945.688 21.272 946.178 22.518 946.178 24.044C946.178 25.514 945.688 26.76 944.722 27.754C943.756 28.748 942.51 29.252 941.012 29.252C939.542 29.252 938.324 28.762 937.33 27.768C936.336 26.788 935.846 25.542 935.846 24.044C935.846 22.546 936.336 21.314 937.316 20.32C938.296 19.326 939.528 18.836 941.012 18.836ZM937.274 24.044C937.274 25.15 937.624 26.088 938.31 26.844C938.996 27.614 939.906 27.992 941.012 27.992C942.09 27.992 942.986 27.614 943.7 26.858C944.4 26.116 944.75 25.178 944.75 24.044C944.75 22.924 944.4 21.986 943.714 21.23C943.028 20.474 942.118 20.096 940.998 20.096C939.92 20.096 939.038 20.474 938.338 21.216C937.624 21.972 937.274 22.91 937.274 24.044ZM948.811 19.088H950.155V27.74H954.705V29H948.811V19.088ZM956.588 19.088H957.932V25.206C957.932 26.312 958.506 27.992 960.424 27.992C962.272 27.992 962.916 26.41 962.916 25.206V19.088H964.26V25.43C964.26 26.452 963.91 27.334 963.21 28.104C962.51 28.874 961.586 29.252 960.424 29.252C959.29 29.252 958.366 28.874 957.652 28.132C956.938 27.39 956.588 26.48 956.588 25.43V19.088ZM967.23 19.088H969.232L972.382 26.592H972.438L975.56 19.088H977.562V29H976.218V20.852H976.19L972.844 29H971.948L968.602 20.852H968.574V29H967.23V19.088ZM980.715 19.088H987.113V20.348H982.059V23.302H986.763V24.562H982.059V27.74H987.365V29H980.715V19.088Z" fill="white"/>
<path fill-rule="evenodd" clip-rule="evenodd" d="M1017.39 17.9182C1018.13 18.4361 1018.6 19.3576 1018.6 20.4064V29.5937C1018.6 30.6424 1018.13 31.5638 1017.39 32.0818C1016.62 32.6177 1015.59 32.6799 1014.72 32.0255L1010.36 28.7213C1010.26 28.6456 1010.17 28.6196 1010.09 28.6196C1008.64 28.6196 1007.76 27.2398 1007.76 25.9345V24.0655C1007.76 22.7602 1008.64 21.3804 1010.09 21.3804C1010.17 21.3804 1010.26 21.3544 1010.36 21.2788L1014.72 17.9745C1015.59 17.3201 1016.62 17.3823 1017.39 17.9182ZM1016.43 19.2852C1016.21 19.131 1015.98 19.1172 1015.73 19.3034L1011.37 22.6077C1011 22.8859 1010.55 23.0471 1010.09 23.0471C1009.88 23.0471 1009.43 23.3255 1009.43 24.0655V25.9345C1009.43 26.6746 1009.88 26.9529 1010.09 26.9529C1010.55 26.9529 1011 27.1141 1011.37 27.3923L1015.73 30.6966C1015.98 30.8828 1016.21 30.869 1016.43 30.7148C1016.68 30.5428 1016.93 30.1602 1016.93 29.5937V20.4064C1016.93 19.8399 1016.68 19.4573 1016.43 19.2852ZM1021.31 19.2704C1021.61 18.9272 1022.14 18.8975 1022.48 19.2041C1023.94 20.5064 1024.85 22.5815 1024.85 24.8696C1024.85 27.1577 1023.94 29.2328 1022.48 30.535C1022.14 30.8417 1021.61 30.8119 1021.31 30.4688C1021 30.1255 1021.03 29.5987 1021.37 29.2921C1022.44 28.34 1023.18 26.7366 1023.18 24.8696C1023.18 23.0025 1022.44 21.3991 1021.37 20.447C1021.03 20.1404 1021 19.6136 1021.31 19.2704ZM1019.71 22.3024C1020.06 21.9998 1020.59 22.0355 1020.89 22.3822C1021.46 23.0311 1021.76 23.9971 1021.76 25C1021.76 26.0029 1021.46 26.9689 1020.89 27.6178C1020.59 27.9645 1020.06 28.0003 1019.71 27.6976C1019.37 27.3949 1019.33 26.8685 1019.63 26.5218C1019.87 26.2456 1020.1 25.7022 1020.1 25C1020.1 24.2978 1019.87 23.7544 1019.63 23.4783C1019.33 23.1315 1019.37 22.6051 1019.71 22.3024Z" fill="white"/>
<rect opacity="0.24" x="1032.09" y="23" width="100" height="3" rx="1.5" fill="#E2F952"/>
<rect x="1032.09" y="23" width="55" height="3" rx="1.5" fill="#E2F952"/>
<circle cx="1092.09" cy="25" r="7" fill="#E2F952"/>
<rect x="1152" y="12" width="62" height="26" rx="6" fill="#E2F952"/>
<path d="M1164.37 20.504H1165.39V29H1164.24V21.824L1162.68 23.264L1162.01 22.46L1164.37 20.504ZM1171 20.36C1172.89 20.36 1173.93 22.004 1173.93 24.752C1173.93 27.488 1172.89 29.144 1171 29.144C1170.06 29.144 1169.32 28.748 1168.83 27.956C1168.33 27.164 1168.08 26.096 1168.08 24.752C1168.08 22.004 1169.1 20.36 1171 20.36ZM1169.23 24.752C1169.23 26.948 1169.85 28.136 1171 28.136C1172.14 28.136 1172.78 26.948 1172.78 24.752C1172.78 22.544 1172.16 21.368 1170.99 21.368C1169.85 21.368 1169.23 22.508 1169.23 24.752ZM1177.67 20.36C1179.56 20.36 1180.6 22.004 1180.6 24.752C1180.6 27.488 1179.56 29.144 1177.67 29.144C1176.72 29.144 1175.99 28.748 1175.5 27.956C1175 27.164 1174.74 26.096 1174.74 24.752C1174.74 22.004 1175.76 20.36 1177.67 20.36ZM1175.9 24.752C1175.9 26.948 1176.52 28.136 1177.67 28.136C1178.81 28.136 1179.45 26.948 1179.45 24.752C1179.45 22.544 1178.82 21.368 1177.66 21.368C1176.52 21.368 1175.9 22.508 1175.9 24.752Z" fill="#1B0730"/>
<path d="M1196.05 27.94L1200.21 20.6L1201.04 20.98L1196.88 28.32L1196.05 27.94ZM1196.16 20.8C1196.67 20.8 1197.1 20.98 1197.47 21.34C1197.84 21.71 1198.02 22.15 1198.02 22.66C1198.02 23.16 1197.84 23.59 1197.49 23.96C1197.13 24.33 1196.69 24.52 1196.16 24.52C1195.65 24.52 1195.22 24.34 1194.85 23.98C1194.48 23.62 1194.3 23.18 1194.3 22.66C1194.3 22.16 1194.48 21.72 1194.84 21.35C1195.2 20.98 1195.64 20.8 1196.16 20.8ZM1195.53 22.02C1195.17 22.37 1195.17 22.95 1195.53 23.3C1195.88 23.65 1196.44 23.65 1196.8 23.3C1197.37 22.79 1196.93 21.7 1196.15 21.76C1195.91 21.76 1195.7 21.85 1195.53 22.02ZM1200.91 24.4C1201.42 24.4 1201.86 24.58 1202.23 24.94C1202.59 25.31 1202.77 25.75 1202.77 26.26C1202.77 26.77 1202.59 27.21 1202.23 27.57C1201.87 27.94 1201.43 28.12 1200.91 28.12C1200.4 28.12 1199.96 27.94 1199.6 27.58C1199.23 27.22 1199.05 26.78 1199.05 26.26C1199.05 25.76 1199.23 25.32 1199.59 24.95C1199.94 24.58 1200.38 24.4 1200.91 24.4ZM1200.28 25.62C1199.69 26.13 1200.14 27.22 1200.91 27.16C1201.42 27.16 1201.81 26.75 1201.81 26.26C1201.81 25.77 1201.42 25.36 1200.9 25.36C1200.66 25.36 1200.45 25.45 1200.28 25.62Z" fill="#5D5962"/>
<path d="M77.926 18.714C78.736 17.598 79.87 17.04 81.328 17.04C82.786 17.04 83.92 17.598 84.73 18.714C85.54 19.848 85.936 21.486 85.936 23.628C85.936 25.77 85.54 27.408 84.748 28.524C83.938 29.658 82.804 30.216 81.328 30.216C79.852 30.216 78.718 29.658 77.926 28.524C77.116 27.408 76.72 25.77 76.72 23.628C76.72 21.486 77.116 19.848 77.926 18.714ZM78.88 23.628C78.88 26.436 79.726 28.164 81.328 28.164C82.93 28.164 83.776 26.508 83.776 23.628C83.776 20.73 82.912 19.092 81.31 19.092C79.744 19.092 78.88 20.748 78.88 23.628ZM88.5783 18.714C89.3883 17.598 90.5223 17.04 91.9803 17.04C93.4383 17.04 94.5723 17.598 95.3823 18.714C96.1923 19.848 96.5883 21.486 96.5883 23.628C96.5883 25.77 96.1923 27.408 95.4003 28.524C94.5903 29.658 93.4563 30.216 91.9803 30.216C90.5043 30.216 89.3703 29.658 88.5783 28.524C87.7683 27.408 87.3723 25.77 87.3723 23.628C87.3723 21.486 87.7683 19.848 88.5783 18.714ZM89.5323 23.628C89.5323 26.436 90.3783 28.164 91.9803 28.164C93.5823 28.164 94.4283 26.508 94.4283 23.628C94.4283 20.73 93.5643 19.092 91.9623 19.092C90.3963 19.092 89.5323 20.748 89.5323 23.628ZM98.9607 21.648C99.7707 20.766 101.463 21.396 101.409 22.602C101.409 23.394 100.761 24.006 99.9687 24.006C99.1947 24.006 98.5287 23.376 98.5287 22.638C98.5287 22.26 98.6727 21.918 98.9607 21.648ZM98.9607 27.75C99.7707 26.85 101.463 27.516 101.409 28.704C101.409 29.496 100.761 30.108 99.9687 30.108C98.7627 30.18 98.0067 28.56 98.9607 27.75ZM108.103 17.04C110.605 17.04 112.225 18.372 112.225 20.658C112.225 22.008 111.649 23.106 110.281 24.384L106.321 28.056H112.225V30H103.693V27.714L108.643 22.926C109.669 21.936 109.957 21.414 109.957 20.766C109.957 19.758 109.129 19.092 108.103 19.092C107.077 19.092 106.285 19.758 106.141 20.82L103.873 20.64C104.107 18.336 105.709 17.04 108.103 17.04ZM119.025 17.256H121.473V25.464H123.327V27.408H121.473V30H119.313V27.408H113.895V25.266L119.025 17.256ZM119.277 20.316L116.091 25.464H119.313V20.316H119.277ZM134.716 16.356L136.21 16.932L130.594 30.864L129.1 30.324L134.716 16.356ZM143.51 18.714C144.32 17.598 145.454 17.04 146.912 17.04C148.37 17.04 149.504 17.598 150.314 18.714C151.124 19.848 151.52 21.486 151.52 23.628C151.52 25.77 151.124 27.408 150.332 28.524C149.522 29.658 148.388 30.216 146.912 30.216C145.436 30.216 144.302 29.658 143.51 28.524C142.7 27.408 142.304 25.77 142.304 23.628C142.304 21.486 142.7 19.848 143.51 18.714ZM144.464 23.628C144.464 26.436 145.31 28.164 146.912 28.164C148.514 28.164 149.36 26.508 149.36 23.628C149.36 20.73 148.496 19.092 146.894 19.092C145.328 19.092 144.464 20.748 144.464 23.628ZM157.474 17.256H160.102L157.042 21.972L157.078 22.008C157.33 21.864 157.726 21.792 158.266 21.792C159.346 21.792 160.264 22.188 161.002 22.962C161.74 23.736 162.1 24.708 162.1 25.86C162.1 27.174 161.668 28.236 160.822 29.028C159.976 29.82 158.878 30.216 157.564 30.216C156.196 30.216 155.098 29.82 154.27 29.028C153.442 28.254 153.028 27.192 153.028 25.878C153.028 24.51 153.496 23.52 154.45 22.008L157.474 17.256ZM155.98 24.186C155.53 24.636 155.296 25.194 155.296 25.842C155.296 26.49 155.53 27.03 155.98 27.48C156.43 27.93 156.988 28.164 157.618 28.164C158.248 28.164 158.806 27.93 159.256 27.48C159.706 27.03 159.94 26.472 159.94 25.842C159.94 25.194 159.706 24.636 159.256 24.186C158.806 23.736 158.248 23.52 157.6 23.52C156.97 23.52 156.43 23.736 155.98 24.186ZM164.545 21.648C165.355 20.766 167.047 21.396 166.993 22.602C166.993 23.394 166.345 24.006 165.553 24.006C164.779 24.006 164.113 23.376 164.113 22.638C164.113 22.26 164.257 21.918 164.545 21.648ZM164.545 27.75C165.355 26.85 167.047 27.516 166.993 28.704C166.993 29.496 166.345 30.108 165.553 30.108C164.347 30.18 163.591 28.56 164.545 27.75ZM173.957 17.256H176.405V25.464H178.259V27.408H176.405V30H174.245V27.408H168.827V25.266L173.957 17.256ZM174.209 20.316L171.023 25.464H174.245V20.316H174.209ZM180.703 17.256H187.957V19.2H182.827L182.773 21.738C183.151 21.63 183.619 21.576 184.141 21.576C185.401 21.576 186.427 21.954 187.219 22.728C187.993 23.502 188.389 24.528 188.389 25.806C188.389 27.12 187.957 28.182 187.111 28.992C186.247 29.802 185.131 30.216 183.781 30.216C181.693 30.216 180.235 29.19 179.659 27.3L181.927 26.688C182.251 27.678 182.953 28.164 184.015 28.164C185.293 28.164 186.229 27.228 186.229 25.986C186.229 24.402 185.095 23.52 183.241 23.52C182.305 23.52 181.423 23.718 180.577 24.132L180.703 17.256Z" fill="white"/>
<defs>
<linearGradient id="paint0_linear_66_46178" x1="-0.148184" y1="25" x2="1236" y2="25" gradientUnits="userSpaceOnUse">
<stop stop-color="#9445EE"/>
<stop offset="0.15" stop-color="#8D43E3"/>
<stop offset="0.41" stop-color="#7B3EC7"/>
<stop offset="0.75" stop-color="#5F3799"/>
<stop offset="1" stop-color="#483274"/>
</linearGradient>
<clipPath id="clip0_66_46178">
<rect width="9.6" height="9.6" fill="white" transform="translate(34.2 20.2031)"/>
</clipPath>
<clipPath id="clip1_66_46178">
<rect width="20" height="20" fill="white" transform="translate(675 15)"/>
</clipPath>
</defs>
</svg>
