<svg width="757" height="80" viewBox="0 0 757 80" fill="none" xmlns="http://www.w3.org/2000/svg">
<rect opacity="0.4" width="757" height="80" rx="8" fill="#E2F952"/>
<g clip-path="url(#clip0_66_45708)">
<path d="M484.479 22.75V59.1679" stroke="#A4AA7F" stroke-width="2" stroke-miterlimit="10"/>
<path d="M489.543 27.2969V54.6103" stroke="#A4AA7F" stroke-width="2" stroke-miterlimit="10"/>
<path d="M494.607 11.8203V69.1785" stroke="#A4AA7F" stroke-width="2" stroke-miterlimit="10"/>
<path d="M500.938 19.1016V61.8926" stroke="#A4AA7F" stroke-width="2" stroke-miterlimit="10"/>
<path d="M506 24.5703V57.3464" stroke="#A4AA7F" stroke-width="2" stroke-miterlimit="10"/>
<path d="M511.064 25.4766V56.4318" stroke="#A4AA7F" stroke-width="2" stroke-miterlimit="10"/>
<path d="M517.395 29.1172V52.7888" stroke="#A4AA7F" stroke-width="2" stroke-miterlimit="10"/>
<path d="M522.457 26.3906V55.525" stroke="#A4AA7F" stroke-width="2" stroke-miterlimit="10"/>
<path d="M527.521 28.2109V53.7035" stroke="#A4AA7F" stroke-width="2" stroke-miterlimit="10"/>
<path d="M533.852 28.2109V53.7035" stroke="#A4AA7F" stroke-width="2" stroke-miterlimit="10"/>
<path d="M538.916 20.9219V60.0711" stroke="#A4AA7F" stroke-width="2" stroke-miterlimit="10"/>
<path d="M543.979 23.6562V58.2533" stroke="#A4AA7F" stroke-width="2" stroke-miterlimit="10"/>
<path d="M550.309 15.4609V65.5356" stroke="#A4AA7F" stroke-width="2" stroke-miterlimit="10"/>
<path d="M555.373 10.9062V70.0854" stroke="#A4AA7F" stroke-width="2" stroke-miterlimit="10"/>
<path d="M560.438 16.375V64.6287" stroke="#A4AA7F" stroke-width="2" stroke-miterlimit="10"/>
<path d="M566.766 11.8203V69.1785" stroke="#A4AA7F" stroke-width="2" stroke-miterlimit="10"/>
<path d="M571.83 24.5703V57.3464" stroke="#A4AA7F" stroke-width="2" stroke-miterlimit="10"/>
<path d="M576.895 30.0312V51.882" stroke="#A4AA7F" stroke-width="2" stroke-miterlimit="10"/>
<path d="M583.225 26.3906V55.525" stroke="#A4AA7F" stroke-width="2" stroke-miterlimit="10"/>
<path d="M588.287 19.1016V61.8926" stroke="#A4AA7F" stroke-width="2" stroke-miterlimit="10"/>
<path d="M593.352 10V71" stroke="#A4AA7F" stroke-width="2" stroke-miterlimit="10"/>
<path d="M599.682 10V71" stroke="#A4AA7F" stroke-width="2" stroke-miterlimit="10"/>
<path d="M604.744 16.375V64.6287" stroke="#A4AA7F" stroke-width="2" stroke-miterlimit="10"/>
<path d="M609.809 22.75V59.1679" stroke="#A4AA7F" stroke-width="2" stroke-miterlimit="10"/>
<path d="M616.139 30.9375V50.9673" stroke="#A4AA7F" stroke-width="2" stroke-miterlimit="10"/>
<path d="M621.203 31.8516V50.0605" stroke="#A4AA7F" stroke-width="2" stroke-miterlimit="10"/>
<path d="M627.533 28.2109V53.7035" stroke="#A4AA7F" stroke-width="2" stroke-miterlimit="10"/>
<path d="M632.596 22.75V59.1679" stroke="#A4AA7F" stroke-width="2" stroke-miterlimit="10"/>
<path d="M637.66 20.0156V60.9858" stroke="#A4AA7F" stroke-width="2" stroke-miterlimit="10"/>
<path d="M643.99 11.8203V69.1785" stroke="#A4AA7F" stroke-width="2" stroke-miterlimit="10"/>
<path d="M649.053 16.375V64.6287" stroke="#A4AA7F" stroke-width="2" stroke-miterlimit="10"/>
<path d="M654.117 22.75V59.1679" stroke="#A4AA7F" stroke-width="2" stroke-miterlimit="10"/>
<path d="M660.447 27.2969V54.6103" stroke="#A4AA7F" stroke-width="2" stroke-miterlimit="10"/>
<path d="M665.512 11.8203V69.1785" stroke="#A4AA7F" stroke-width="2" stroke-miterlimit="10"/>
<path d="M670.574 19.1016V61.8926" stroke="#A4AA7F" stroke-width="2" stroke-miterlimit="10"/>
<path d="M676.904 24.5703V57.3464" stroke="#A4AA7F" stroke-width="2" stroke-miterlimit="10"/>
<path d="M681.969 25.4766V56.4318" stroke="#A4AA7F" stroke-width="2" stroke-miterlimit="10"/>
<path d="M687.033 29.1172V52.7888" stroke="#A4AA7F" stroke-width="2" stroke-miterlimit="10"/>
<path d="M693.361 26.3906V55.525" stroke="#A4AA7F" stroke-width="2" stroke-miterlimit="10"/>
<path d="M698.426 28.2109V53.7035" stroke="#A4AA7F" stroke-width="2" stroke-miterlimit="10"/>
<path d="M703.49 28.2109V53.7035" stroke="#A4AA7F" stroke-width="2" stroke-miterlimit="10"/>
<path d="M709.82 20.9219V60.0711" stroke="#A4AA7F" stroke-width="2" stroke-miterlimit="10"/>
<path d="M714.883 14.5547V66.4502" stroke="#A4AA7F" stroke-width="2" stroke-miterlimit="10"/>
<path d="M719.947 15.4609V65.5356" stroke="#A4AA7F" stroke-width="2" stroke-miterlimit="10"/>
<path d="M726.277 20.9219V60.0711" stroke="#A4AA7F" stroke-width="2" stroke-miterlimit="10"/>
<path d="M731.342 32.7578V49.1459" stroke="#A4AA7F" stroke-width="2" stroke-miterlimit="10"/>
<path d="M28.6602 31.8516V50.0605" stroke="#A4AA7F" stroke-width="2" stroke-miterlimit="10"/>
<path d="M33.7246 28.2109V53.7035" stroke="#A4AA7F" stroke-width="2" stroke-miterlimit="10"/>
<path d="M40.0527 22.75V59.1679" stroke="#A4AA7F" stroke-width="2" stroke-miterlimit="10"/>
<path d="M45.1172 20.0156V60.9858" stroke="#A4AA7F" stroke-width="2" stroke-miterlimit="10"/>
<path d="M50.1816 11.8203V69.1785" stroke="#A4AA7F" stroke-width="2" stroke-miterlimit="10"/>
<path d="M56.5117 16.375V64.6287" stroke="#A4AA7F" stroke-width="2" stroke-miterlimit="10"/>
<path d="M61.5742 22.75V59.1679" stroke="#A4AA7F" stroke-width="2" stroke-miterlimit="10"/>
<path d="M66.6387 27.2969V54.6103" stroke="#A4AA7F" stroke-width="2" stroke-miterlimit="10"/>
<path d="M72.9688 11.8203V69.1785" stroke="#A4AA7F" stroke-width="2" stroke-miterlimit="10"/>
<path d="M78.0332 19.1016V61.8926" stroke="#A4AA7F" stroke-width="2" stroke-miterlimit="10"/>
<path d="M83.0957 24.5703V57.3464" stroke="#A4AA7F" stroke-width="2" stroke-miterlimit="10"/>
<path d="M89.4258 25.4766V56.4318" stroke="#A4AA7F" stroke-width="2" stroke-miterlimit="10"/>
<path d="M94.4902 29.1172V52.7888" stroke="#A4AA7F" stroke-width="2" stroke-miterlimit="10"/>
<path d="M99.5527 26.3906V55.525" stroke="#A4AA7F" stroke-width="2" stroke-miterlimit="10"/>
<path d="M105.883 28.2109V53.7035" stroke="#A4AA7F" stroke-width="2" stroke-miterlimit="10"/>
<path d="M110.947 28.2109V53.7035" stroke="#A4AA7F" stroke-width="2" stroke-miterlimit="10"/>
<path d="M116.012 20.9219V60.0711" stroke="#A4AA7F" stroke-width="2" stroke-miterlimit="10"/>
<path d="M122.342 23.6562V58.2533" stroke="#A4AA7F" stroke-width="2" stroke-miterlimit="10"/>
<path d="M127.404 15.4609V65.5356" stroke="#A4AA7F" stroke-width="2" stroke-miterlimit="10"/>
<path d="M132.469 10.9062V70.0854" stroke="#A4AA7F" stroke-width="2" stroke-miterlimit="10"/>
<path d="M138.799 16.375V64.6287" stroke="#A4AA7F" stroke-width="2" stroke-miterlimit="10"/>
<path d="M143.861 11.8203V69.1785" stroke="#A4AA7F" stroke-width="2" stroke-miterlimit="10"/>
<path d="M150.191 24.5703V57.3464" stroke="#A4AA7F" stroke-width="2" stroke-miterlimit="10"/>
<path d="M155.256 30.0312V51.882" stroke="#A4AA7F" stroke-width="2" stroke-miterlimit="10"/>
<path d="M160.32 26.3906V55.525" stroke="#A4AA7F" stroke-width="2" stroke-miterlimit="10"/>
<path d="M166.648 19.1016V61.8926" stroke="#A4AA7F" stroke-width="2" stroke-miterlimit="10"/>
<path d="M171.713 10V71" stroke="#A4AA7F" stroke-width="2" stroke-miterlimit="10"/>
<path d="M176.777 10V71" stroke="#A4AA7F" stroke-width="2" stroke-miterlimit="10"/>
<path d="M183.107 16.375V64.6287" stroke="#A4AA7F" stroke-width="2" stroke-miterlimit="10"/>
<path d="M188.17 22.75V59.1679" stroke="#A4AA7F" stroke-width="2" stroke-miterlimit="10"/>
<path d="M193.234 30.9375V50.9673" stroke="#A4AA7F" stroke-width="2" stroke-miterlimit="10"/>
<path d="M199.564 31.8516V50.0605" stroke="#A4AA7F" stroke-width="2" stroke-miterlimit="10"/>
<path d="M204.629 28.2109V53.7035" stroke="#A4AA7F" stroke-width="2" stroke-miterlimit="10"/>
<path d="M209.691 22.75V59.1679" stroke="#A4AA7F" stroke-width="2" stroke-miterlimit="10"/>
<path d="M216.021 20.0156V60.9858" stroke="#A4AA7F" stroke-width="2" stroke-miterlimit="10"/>
<path d="M221.086 11.8203V69.1785" stroke="#A4AA7F" stroke-width="2" stroke-miterlimit="10"/>
<path d="M226.148 16.375V64.6287" stroke="#A4AA7F" stroke-width="2" stroke-miterlimit="10"/>
<path d="M232.479 22.75V59.1679" stroke="#A4AA7F" stroke-width="2" stroke-miterlimit="10"/>
<path d="M237.543 27.2969V54.6103" stroke="#A4AA7F" stroke-width="2" stroke-miterlimit="10"/>
<path d="M242.607 11.8203V69.1785" stroke="#A4AA7F" stroke-width="2" stroke-miterlimit="10"/>
<path d="M248.938 19.1016V61.8926" stroke="#A4AA7F" stroke-width="2" stroke-miterlimit="10"/>
<path d="M254 24.5703V57.3464" stroke="#A4AA7F" stroke-width="2" stroke-miterlimit="10"/>
<path d="M259.064 25.4766V56.4318" stroke="#A4AA7F" stroke-width="2" stroke-miterlimit="10"/>
<path d="M265.395 29.1172V52.7888" stroke="#A4AA7F" stroke-width="2" stroke-miterlimit="10"/>
<path d="M270.457 26.3906V55.525" stroke="#A4AA7F" stroke-width="2" stroke-miterlimit="10"/>
<path d="M275.521 28.2109V53.7035" stroke="#A4AA7F" stroke-width="2" stroke-miterlimit="10"/>
<path d="M281.852 28.2109V53.7035" stroke="#A4AA7F" stroke-width="2" stroke-miterlimit="10"/>
<path d="M286.916 20.9219V60.0711" stroke="#A4AA7F" stroke-width="2" stroke-miterlimit="10"/>
<path d="M291.979 23.6562V58.2533" stroke="#A4AA7F" stroke-width="2" stroke-miterlimit="10"/>
<path d="M298.309 15.4609V65.5356" stroke="#A4AA7F" stroke-width="2" stroke-miterlimit="10"/>
<path d="M303.373 10.9062V70.0854" stroke="#A4AA7F" stroke-width="2" stroke-miterlimit="10"/>
<path d="M308.438 16.375V64.6287" stroke="#A4AA7F" stroke-width="2" stroke-miterlimit="10"/>
<path d="M314.766 11.8203V69.1785" stroke="#A4AA7F" stroke-width="2" stroke-miterlimit="10"/>
<path d="M319.83 24.5703V57.3464" stroke="#A4AA7F" stroke-width="2" stroke-miterlimit="10"/>
<path d="M324.895 30.0312V51.882" stroke="#A4AA7F" stroke-width="2" stroke-miterlimit="10"/>
<path d="M331.225 26.3906V55.525" stroke="#A4AA7F" stroke-width="2" stroke-miterlimit="10"/>
<path d="M336.287 19.1016V61.8926" stroke="#A4AA7F" stroke-width="2" stroke-miterlimit="10"/>
<path d="M341.352 10V71" stroke="#A4AA7F" stroke-width="2" stroke-miterlimit="10"/>
<path d="M347.682 10V71" stroke="#A4AA7F" stroke-width="2" stroke-miterlimit="10"/>
<path d="M352.744 16.375V64.6287" stroke="#A4AA7F" stroke-width="2" stroke-miterlimit="10"/>
<path d="M357.809 22.75V59.1679" stroke="#A4AA7F" stroke-width="2" stroke-miterlimit="10"/>
<path d="M364.139 30.9375V50.9673" stroke="#A4AA7F" stroke-width="2" stroke-miterlimit="10"/>
<path d="M369.203 31.8516V50.0605" stroke="#A4AA7F" stroke-width="2" stroke-miterlimit="10"/>
<path d="M375.533 28.2109V53.7035" stroke="#A4AA7F" stroke-width="2" stroke-miterlimit="10"/>
<path d="M380.596 22.75V59.1679" stroke="#A4AA7F" stroke-width="2" stroke-miterlimit="10"/>
<path d="M385.66 20.0156V60.9858" stroke="#A4AA7F" stroke-width="2" stroke-miterlimit="10"/>
<path d="M391.99 11.8203V69.1785" stroke="#A4AA7F" stroke-width="2" stroke-miterlimit="10"/>
<path d="M397.053 16.375V64.6287" stroke="#A4AA7F" stroke-width="2" stroke-miterlimit="10"/>
<path d="M402.117 22.75V59.1679" stroke="#A4AA7F" stroke-width="2" stroke-miterlimit="10"/>
<path d="M408.447 27.2969V54.6103" stroke="#A4AA7F" stroke-width="2" stroke-miterlimit="10"/>
<path d="M413.512 11.8203V69.1785" stroke="#A4AA7F" stroke-width="2" stroke-miterlimit="10"/>
<path d="M418.574 19.1016V61.8926" stroke="#A4AA7F" stroke-width="2" stroke-miterlimit="10"/>
<path d="M424.904 24.5703V57.3464" stroke="#A4AA7F" stroke-width="2" stroke-miterlimit="10"/>
<path d="M429.969 25.4766V56.4318" stroke="#A4AA7F" stroke-width="2" stroke-miterlimit="10"/>
<path d="M435.033 29.1172V52.7888" stroke="#A4AA7F" stroke-width="2" stroke-miterlimit="10"/>
<path d="M441.361 26.3906V55.525" stroke="#A4AA7F" stroke-width="2" stroke-miterlimit="10"/>
<path d="M446.426 28.2109V53.7035" stroke="#A4AA7F" stroke-width="2" stroke-miterlimit="10"/>
<path d="M451.49 28.2109V53.7035" stroke="#A4AA7F" stroke-width="2" stroke-miterlimit="10"/>
<path d="M457.82 20.9219V60.0711" stroke="#A4AA7F" stroke-width="2" stroke-miterlimit="10"/>
<path d="M462.883 14.5547V66.4502" stroke="#A4AA7F" stroke-width="2" stroke-miterlimit="10"/>
<path d="M467.947 15.4609V65.5356" stroke="#A4AA7F" stroke-width="2" stroke-miterlimit="10"/>
<path d="M474.277 20.9219V60.0711" stroke="#A4AA7F" stroke-width="2" stroke-miterlimit="10"/>
<path d="M479.342 32.7578V49.1459" stroke="#A4AA7F" stroke-width="2" stroke-miterlimit="10"/>
<path d="M16 41H741" stroke="#A4AA7F" stroke-width="2" stroke-miterlimit="10"/>
</g>
<defs>
<clipPath id="clip0_66_45708">
<rect width="725" height="60" fill="white" transform="translate(16 10)"/>
</clipPath>
</defs>
</svg>
