<svg width="231" height="80" viewBox="0 0 231 80" fill="none" xmlns="http://www.w3.org/2000/svg">
<rect width="231" height="80" rx="8" fill="#D3D5FA"/>
<g clip-path="url(#clip0_66_43801)">
<path d="M28.6602 31.8516V50.0605" stroke="#A1A5DF" stroke-width="2" stroke-miterlimit="10"/>
<path d="M33.7246 28.2109V53.7035" stroke="#A1A5DF" stroke-width="2" stroke-miterlimit="10"/>
<path d="M40.0527 22.75V59.1679" stroke="#A1A5DF" stroke-width="2" stroke-miterlimit="10"/>
<path d="M45.1172 20.0156V60.9858" stroke="#A1A5DF" stroke-width="2" stroke-miterlimit="10"/>
<path d="M50.1816 11.8203V69.1785" stroke="#A1A5DF" stroke-width="2" stroke-miterlimit="10"/>
<path d="M56.5117 16.375V64.6287" stroke="#A1A5DF" stroke-width="2" stroke-miterlimit="10"/>
<path d="M61.5742 22.75V59.1679" stroke="#A1A5DF" stroke-width="2" stroke-miterlimit="10"/>
<path d="M66.6387 27.2969V54.6103" stroke="#A1A5DF" stroke-width="2" stroke-miterlimit="10"/>
<path d="M72.9688 11.8203V69.1785" stroke="#A1A5DF" stroke-width="2" stroke-miterlimit="10"/>
<path d="M78.0332 19.1016V61.8926" stroke="#A1A5DF" stroke-width="2" stroke-miterlimit="10"/>
<path d="M83.0957 24.5703V57.3464" stroke="#A1A5DF" stroke-width="2" stroke-miterlimit="10"/>
<path d="M89.4258 25.4766V56.4318" stroke="#A1A5DF" stroke-width="2" stroke-miterlimit="10"/>
<path d="M94.4902 29.1172V52.7888" stroke="#A1A5DF" stroke-width="2" stroke-miterlimit="10"/>
<path d="M99.5527 26.3906V55.525" stroke="#A1A5DF" stroke-width="2" stroke-miterlimit="10"/>
<path d="M105.883 28.2109V53.7035" stroke="#A1A5DF" stroke-width="2" stroke-miterlimit="10"/>
<path d="M110.947 28.2109V53.7035" stroke="#A1A5DF" stroke-width="2" stroke-miterlimit="10"/>
<path d="M116.012 20.9219V60.0711" stroke="#A1A5DF" stroke-width="2" stroke-miterlimit="10"/>
<path d="M122.342 23.6562V58.2533" stroke="#A1A5DF" stroke-width="2" stroke-miterlimit="10"/>
<path d="M127.404 15.4609V65.5356" stroke="#A1A5DF" stroke-width="2" stroke-miterlimit="10"/>
<path d="M132.469 10.9062V70.0854" stroke="#A1A5DF" stroke-width="2" stroke-miterlimit="10"/>
<path d="M138.799 16.375V64.6287" stroke="#A1A5DF" stroke-width="2" stroke-miterlimit="10"/>
<path d="M143.861 11.8203V69.1785" stroke="#A1A5DF" stroke-width="2" stroke-miterlimit="10"/>
<path d="M150.191 24.5703V57.3464" stroke="#A1A5DF" stroke-width="2" stroke-miterlimit="10"/>
<path d="M155.256 30.0312V51.882" stroke="#A1A5DF" stroke-width="2" stroke-miterlimit="10"/>
<path d="M160.32 26.3906V55.525" stroke="#A1A5DF" stroke-width="2" stroke-miterlimit="10"/>
<path d="M166.648 19.1016V61.8926" stroke="#A1A5DF" stroke-width="2" stroke-miterlimit="10"/>
<path d="M171.713 10V71" stroke="#A1A5DF" stroke-width="2" stroke-miterlimit="10"/>
<path d="M176.777 10V71" stroke="#A1A5DF" stroke-width="2" stroke-miterlimit="10"/>
<path d="M183.107 16.375V64.6287" stroke="#A1A5DF" stroke-width="2" stroke-miterlimit="10"/>
<path d="M188.17 22.75V59.1679" stroke="#A1A5DF" stroke-width="2" stroke-miterlimit="10"/>
<path d="M193.234 30.9375V50.9673" stroke="#A1A5DF" stroke-width="2" stroke-miterlimit="10"/>
<path d="M199.564 31.8516V50.0605" stroke="#A1A5DF" stroke-width="2" stroke-miterlimit="10"/>
<path d="M16 40.9531H492" stroke="#A1A5DF" stroke-width="2" stroke-miterlimit="10"/>
</g>
<defs>
<clipPath id="clip0_66_43801">
<rect width="199" height="60" fill="white" transform="translate(16 10)"/>
</clipPath>
</defs>
</svg>
